PathFileType	4	(X/Y/Z)	W:\OA_GaitRetraining\ACL OpenCap study\PS1\Edited\Trimmed_C90_L101.trc
DataRate	CameraRate	NumFrames	NumMarkers	Units	OrigDataRate	OrigDataStartFrame	OrigNumFrames
200.00	200.00	       7	46	mm	200.00	37	       147
Frame#	Time	C7			R_Shoulder			L_Shoulder			Sternum			R_humerus			R_elbow_med			R_elbow_lat			R_forearm			R_wrist_radius			R_wrist_ulna			L_humerus			L_elbow_med			L_elbow_lat			L_forearm			L_wrist_radius			L_wrist_ulna			r.ASIS			r.PSIS			L.ASIS			L.PSIS			r_thigh1			r_thigh2			r_thigh3			r_thigh4			r_thigh5			r_knee			r_shank_antsup			r_sh2			r_sh3			r_sh4			r_ankle			r_calc			r_5meta			r_toe			L_thigh1			L_thigh2			L_thigh3			L_thigh4			L_knee			L_shank_antsup			L_sh2			L_sh3			L_ankle			L_calc			L_5meta			L_toe			
		X1	Y1	Z1	X2	Y2	Z2	X3	Y3	Z3	X4	Y4	Z4	X5	Y5	Z5	X6	Y6	Z6	X7	Y7	Z7	X8	Y8	Z8	X9	Y9	Z9	X10	Y10	Z10	X11	Y11	Z11	X12	Y12	Z12	X13	Y13	Z13	X14	Y14	Z14	X15	Y15	Z15	X16	Y16	Z16	X17	Y17	Z17	X18	Y18	Z18	X19	Y19	Z19	X20	Y20	Z20	X21	Y21	Z21	X22	Y22	Z22	X23	Y23	Z23	X24	Y24	Z24	X25	Y25	Z25	X26	Y26	Z26	X27	Y27	Z27	X28	Y28	Z28	X29	Y29	Z29	X30	Y30	Z30	X31	Y31	Z31	X32	Y32	Z32	X33	Y33	Z33	X34	Y34	Z34	X35	Y35	Z35	X36	Y36	Z36	X37	Y37	Z37	X38	Y38	Z38	X39	Y39	Z39	X40	Y40	Z40	X41	Y41	Z41	X42	Y42	Z42	X43	Y43	Z43	X44	Y44	Z44	X45	Y45	Z45	X46	Y46	Z46	

37	0.180	136.95219	92.18293	1245.08960	213.27667	-49.63718	1184.67969	234.09987	238.84465	1191.58240	261.46109	84.22093	1148.58374	71.18298	-182.28760	1030.30493	-20.82320	-141.73051	939.02496	-0.49074	-209.83418	951.55353	102.04905	-210.85423	831.88391	116.29713	-204.83882	755.17285	157.02724	-190.50288	781.99036	130.59520	343.27353	1077.82629	-35.05096	329.73755	1007.39734	-2.34193	395.63324	1001.53888	6.18770	403.88052	907.73645	-26.83935	373.79382	768.11829	-63.34137	413.42242	783.65546	153.48674	-52.06865	767.40125	-33.44883	54.92997	807.86218	179.07231	198.45961	778.63263	-30.76974	126.28121	805.61053	217.07243	-79.04346	695.55750	315.63272	-67.49591	622.08594	310.58585	-101.64986	577.50140	157.41209	-120.43438	608.28235	251.97101	-104.65765	541.11023	398.80368	-76.89098	448.87823	417.37360	-59.86910	336.36588	389.80731	-19.28426	228.16898	342.05505	-72.45467	348.21420	305.40402	-32.85200	244.93097	287.41599	17.32744	100.87914	218.45534	76.09845	82.28527	369.96054	-7.55304	39.27427	429.28430	45.03152	53.78769	261.58365	231.62804	724.20520	378.34985	224.33469	652.38922	204.01306	297.81216	644.22797	324.67618	282.86209	571.33813	449.84488	266.99319	518.24841	438.13022	284.30142	360.30603	355.63965	293.63904	396.87433	314.31482	282.95923	282.03485	308.18140	303.82245	180.08592	236.34114	260.38803	163.09901	377.44254	339.99088	93.50723	421.45316	275.10614	100.71133	
38	0.185	152.39215	92.88283	1244.64050	231.20004	-49.29411	1182.69958	249.94687	238.00487	1187.80237	277.86758	84.32397	1145.78381	88.87704	-183.55858	1029.84009	-4.19815	-144.16821	939.27368	16.34607	-210.49759	950.84625	120.26144	-211.61189	832.80054	135.73685	-204.63901	755.07874	175.50891	-190.96040	782.53772	145.42535	342.86154	1075.94348	-22.37971	329.75195	1010.47015	10.31552	395.47913	1003.53033	15.98283	404.15521	909.69220	-20.17590	374.45056	770.96967	-56.60814	413.84732	787.78784	166.21326	-55.31958	765.56067	-19.63061	55.11837	807.02435	193.23157	198.11755	777.60944	-15.13281	124.62537	805.51202	229.75542	-82.62381	692.50952	327.89911	-70.06155	619.28400	322.82266	-103.27418	573.70972	169.85045	-122.01650	604.59412	264.29868	-105.73547	538.43604	409.08133	-77.74881	443.29840	427.03821	-60.38464	332.27118	395.27991	-18.15719	224.79720	351.67874	-72.76741	345.92661	311.14435	-32.47706	244.52647	288.90384	18.42228	102.05742	220.20638	77.13085	85.40524	370.36270	-7.15850	39.75184	430.12070	45.25126	53.39492	273.93176	229.87874	724.56348	391.57089	222.09489	654.02625	217.42970	296.17752	644.21320	339.14700	280.79507	572.39838	465.20657	264.97641	521.61664	461.30515	285.27429	360.85406	377.33929	294.48773	393.66516	341.92847	285.70187	276.24252	341.90479	307.64319	173.13370	270.53708	265.05899	151.50400	416.53601	343.73950	91.08832	459.65018	278.96649	101.13308	
39	0.190	169.67691	92.46221	1241.77979	249.16583	-48.76506	1180.76843	265.97256	238.03580	1185.04639	294.18680	84.49293	1142.88489	106.54444	-184.85394	1029.61938	12.32420	-146.20294	940.32379	33.17060	-212.27998	951.60010	138.38222	-212.23094	834.43158	153.99400	-205.02428	756.07037	193.83879	-190.99319	783.72552	159.61081	342.62201	1074.74866	-9.77426	329.95868	1014.17877	22.65735	395.43167	1005.90265	26.01901	404.30823	912.12598	-12.94618	374.40115	774.53821	-49.70869	414.06003	792.66547	178.66785	-58.12165	764.20105	-5.84829	55.16842	806.95300	207.34161	198.16277	777.33289	-0.69189	124.48169	805.16992	241.78149	-84.97079	687.88684	340.82523	-72.75912	615.64362	334.92969	-104.76502	569.10706	181.78226	-123.67846	600.56976	275.96594	-105.49079	534.25171	419.34042	-78.25481	437.90359	435.83197	-60.12368	327.73245	400.72443	-17.18258	221.60963	360.56219	-74.32243	344.37643	317.54587	-31.92552	243.58688	290.85968	18.72845	103.94791	222.16489	77.77043	88.34230	370.70081	-6.82324	40.21138	431.07706	45.44379	52.93635	286.06342	228.22131	724.62939	404.45932	220.22562	655.31464	230.94957	294.29935	643.33777	353.12759	278.71609	572.97040	480.15012	263.14246	523.81921	484.30496	286.16815	361.19406	399.46445	295.59100	389.95816	370.06146	288.53781	269.73929	376.23700	310.83267	164.99243	306.23898	269.08801	139.58128	455.89648	347.63599	89.53926	499.98102	282.26120	102.18924	
40	0.195	186.11505	92.52179	1240.43091	267.09146	-48.08964	1178.92896	281.90964	238.23256	1182.30396	310.46112	84.81070	1139.97827	124.23485	-186.19386	1029.66736	28.83630	-147.92229	941.78894	50.95616	-214.49606	952.95593	156.79633	-213.20753	836.86926	171.42403	-205.52933	758.12091	211.64043	-190.87141	785.67798	173.61140	342.71466	1074.05334	2.77664	330.27209	1018.27899	34.81466	395.42184	1008.57629	36.33894	404.10614	914.84045	-4.06506	374.33142	778.29779	-40.20021	413.96082	795.39203	190.79755	-60.41903	763.21332	7.99521	55.22027	807.12000	221.28040	197.44237	777.00928	13.11686	124.56013	805.54498	254.82260	-88.66397	683.61688	353.31256	-75.87720	611.33521	346.68503	-106.07310	564.04535	194.48732	-124.60133	596.67181	287.55261	-104.85482	529.68750	429.82388	-78.71687	432.58289	444.21173	-59.92103	323.51920	406.11252	-16.30071	218.73572	370.63293	-73.78231	341.95084	323.82004	-31.71376	242.61449	292.79660	18.93162	105.54455	223.79790	78.67957	91.72074	371.01343	-6.48865	40.70156	431.41187	45.64043	53.02303	298.14209	226.81752	724.38721	417.24487	218.67911	656.06964	243.67453	292.36411	642.25861	366.37408	276.60626	573.09650	494.65579	261.45706	524.59406	507.00116	286.91809	361.27844	420.73004	296.57315	385.08359	397.95975	290.82562	264.75427	410.92047	314.00592	158.12892	342.40051	272.59476	128.08604	495.48962	351.28351	88.75410	537.33472	286.74692	103.01788	
41	0.200	202.96913	92.51685	1238.82385	284.90857	-47.42226	1177.19067	297.71738	238.54248	1179.59998	326.77737	85.19437	1137.08569	141.86751	-187.59030	1029.85852	45.28730	-149.68968	943.55438	68.59962	-217.38791	955.10419	174.81749	-213.46089	838.98584	189.12485	-205.39722	760.22504	228.97250	-190.59471	788.21088	188.03737	343.47955	1074.18518	15.29499	330.60413	1022.59943	46.69648	395.43295	1011.60242	47.27285	404.44980	918.12610	6.10241	374.04962	782.22296	-28.85662	413.78510	800.48932	202.71191	-62.49633	762.58942	21.87647	55.04295	807.44501	234.91165	196.58324	777.23523	26.77185	123.96922	806.59644	268.34210	-91.50389	679.51740	367.56671	-77.53921	607.27161	358.55045	-107.43987	558.68304	206.54523	-125.51703	592.61230	298.84366	-104.49902	525.08112	440.37308	-78.95200	427.64474	452.35074	-59.48138	320.28088	411.62393	-15.67197	216.47423	379.31921	-74.00131	339.83148	330.10864	-31.82779	241.73882	294.64798	19.04110	107.31275	225.51024	79.34351	94.51497	371.24762	-6.24392	41.16281	433.10129	46.62888	52.91875	310.39700	225.59427	723.75311	429.61465	216.92966	655.92273	256.62064	290.29361	640.59003	379.57983	274.67242	572.35608	508.34366	259.97333	524.05768	529.41052	287.58511	361.09689	440.48929	297.38632	378.65314	426.51907	292.50375	258.21585	446.90665	317.42322	153.88910	379.35458	276.12219	117.01021	535.55243	354.44565	89.06122	575.73419	289.69421	105.09747	
42	0.205	219.98503	92.48158	1237.19409	302.67270	-46.76201	1175.44641	313.43741	238.92387	1176.85376	343.13098	85.67915	1134.23682	159.34013	-188.97618	1030.38513	61.46773	-151.57582	945.65723	86.14167	-220.40532	957.61371	192.69637	-213.53688	841.35602	206.62575	-205.16475	762.68036	246.16740	-190.11786	791.20538	201.74345	344.35822	1074.79529	27.93446	331.01123	1026.93018	58.49384	395.32687	1014.88257	58.60424	404.82254	921.44153	17.25126	373.55258	786.22345	-17.97217	413.42819	804.42395	214.41946	-64.38433	762.30981	35.70102	54.64758	807.80450	248.89635	196.70523	777.47662	40.50942	122.62966	807.66089	281.13181	-94.73043	675.04871	380.30560	-79.86711	602.18286	370.13870	-108.56068	553.06671	218.64508	-126.17747	588.77661	310.24063	-104.27766	520.46063	451.11658	-79.11230	423.01035	460.08423	-59.52052	317.42972	417.18057	-15.37540	214.74954	387.66516	-74.33858	338.18082	336.39246	-32.35602	241.19684	296.11945	18.99108	109.36321	226.75691	79.76122	97.81919	371.41788	-6.11817	41.54789	433.00128	46.19081	53.24811	322.72943	224.62239	722.77258	442.10745	215.71458	655.19165	268.96408	288.72266	638.91418	392.05585	272.69394	571.33368	521.56598	258.50214	522.31775	551.39972	288.15942	360.50677	461.91553	297.86551	373.42691	454.90671	293.82883	251.66318	482.30219	320.30515	147.63022	416.90887	279.50021	106.25811	574.66406	356.93423	89.41659	613.45917	291.81339	107.52448	
43	0.210	236.92439	92.43858	1235.61658	320.43756	-46.09398	1173.77808	329.22757	239.32823	1174.04944	359.20892	86.26305	1131.28735	176.58981	-190.37462	1031.23450	77.32042	-153.83508	948.04712	104.07169	-223.08856	959.90479	210.19206	-213.55696	844.06317	223.90240	-204.86684	765.41901	263.01407	-189.57961	794.40613	214.94328	345.15201	1075.63306	40.74406	331.38962	1031.03577	70.29702	395.25220	1018.17145	69.71800	404.40796	924.70007	29.58294	373.07401	790.22510	-5.89148	412.90216	808.20221	226.17088	-66.23595	762.23846	49.42492	53.93028	808.11505	261.78174	194.76843	778.33209	54.32187	121.01166	808.43243	294.63870	-97.33575	671.03735	393.43500	-82.17268	597.53552	382.06735	-109.68970	547.55927	230.94153	-126.71302	585.18536	321.84967	-104.22741	515.94250	462.01984	-79.04671	418.78836	468.01736	-59.32870	314.87750	422.31100	-15.43269	213.22501	395.89886	-74.49275	337.06516	342.30557	-33.14454	241.18706	297.35794	19.04062	111.27065	228.18787	79.95479	100.92248	371.59821	-6.12437	41.86240	433.14648	46.05780	53.44847	335.35394	223.82283	721.41772	454.76892	214.57790	653.76593	281.37296	286.66736	636.91992	404.41040	270.73807	569.53613	533.77985	256.89035	519.44153	572.86340	288.78848	359.51089	483.28793	298.71445	367.18088	483.20822	294.85519	245.15340	516.71893	322.18869	141.94046	454.84555	283.06021	96.29786	613.38525	359.28415	90.85191	650.70404	292.90125	110.61040	
